# xmcd
#
# Track frame offsets:
#	182
#	18545
#	31252
#	50542
#	67617
#	79515
#	93422
#	105515
#	120990
#	134687
#
# Disc length: 1953 seconds
#
# Revision: 0
# Processed by: cddbd v1.4PL0 Copyright (c) Steve Scherf et al.
# Submitted via: dBpowerAMP V4.0
#
DISCID=73079f0a
DTITLE=Willie Nelson - Whiskey River And Other Hits
DYEAR=1998
DGENRE=Country
TTITLE0=Whiskey River (Bush/Stroud)
TTITLE1=Bloody Mary Morning (Nelson)
TTITLE2=I Still Can't Believe Your Gone Nelson)
TTITLE3=Sister's Coming Home (Nelson)
TTITLE4=Stay All Night (Stay A Little Longer) (Wills/Duncan)
TTITLE5=After The Fire Is Gone (White)
TTITLE6=Devil In A Sleeping Bag Nelson)
TTITLE7=I'm Falling In Love Again (Nelson)
TTITLE8=Pretent I Never Happened (Nelson)
TTITLE9=Shotgun Willie (Nelson)
EXTD=
EXTT0=
EXTT1=
EXTT2=
EXTT3=
EXTT4=
EXTT5=
EXTT6=
EXTT7=
EXTT8=
EXTT9=
PLAYORDER=
